<svg width="860" height="860" viewBox="0 0 860 860" fill="none" xmlns="http://www.w3.org/2000/svg">
<circle cx="430" cy="430" r="430" fill="white"/>
<path d="M271.448 516C269.629 516 268.141 515.421 266.984 514.264C265.992 512.941 265.661 511.371 265.992 509.552L300.216 348.848C300.547 347.029 301.456 345.541 302.944 344.384C304.597 343.061 306.333 342.4 308.152 342.4H376.104C386.355 342.4 395.779 343.64 404.376 346.12C412.973 348.435 420.248 352.072 426.2 357.032C432.152 361.992 436.285 368.192 438.6 375.632C441.08 382.907 441.328 391.504 439.344 401.424C435.045 421.264 426.365 435.813 413.304 445.072C400.408 454.165 382.635 458.712 359.984 458.712H332.208L321.296 509.552C320.965 511.371 320.056 512.941 318.568 514.264C317.08 515.421 315.427 516 313.608 516H271.448ZM339.648 418.784H362.712C367.341 418.784 371.723 417.379 375.856 414.568C379.989 411.592 382.717 407.045 384.04 400.928C384.867 397.787 385.032 394.811 384.536 392C384.205 389.189 382.965 386.957 380.816 385.304C378.832 383.485 375.525 382.576 370.896 382.576H347.584L339.648 418.784ZM446.141 516C444.487 516 443.165 515.421 442.173 514.264C441.181 512.941 440.85 511.371 441.181 509.552L475.157 348.848C475.487 347.029 476.479 345.541 478.133 344.384C479.786 343.061 481.439 342.4 483.093 342.4H553.773C576.258 342.4 592.791 347.525 603.373 357.776C614.119 368.027 617.509 382.328 613.541 400.68C611.061 412.253 606.266 422.091 599.157 430.192C592.213 438.293 584.029 444.659 574.605 449.288L594.197 507.816C594.362 508.312 594.445 508.808 594.445 509.304C594.61 509.635 594.61 510.048 594.445 510.544C594.114 512.032 593.287 513.355 591.965 514.512C590.807 515.504 589.485 516 587.997 516H546.085C542.943 516 540.711 515.256 539.389 513.768C538.231 512.115 537.487 510.627 537.157 509.304L523.269 458.216H505.413L494.501 509.552C494.17 511.371 493.178 512.941 491.525 514.264C490.037 515.421 488.383 516 486.565 516H446.141ZM514.093 417.296H537.653C543.439 417.296 548.069 415.725 551.541 412.584C555.178 409.277 557.493 405.227 558.485 400.432C559.477 395.472 558.898 391.256 556.749 387.784C554.765 384.312 550.797 382.576 544.845 382.576H521.285L514.093 417.296Z" fill="#143C5C"/>
</svg>
