<svg width="1459" height="250" viewBox="0 0 1459 250" fill="none" xmlns="http://www.w3.org/2000/svg">
<path d="M6.448 232C4.62933 232 3.14133 231.421 1.984 230.264C0.992 228.941 0.661333 227.371 0.992 225.552L35.216 64.848C35.5467 63.0293 36.456 61.5413 37.944 60.384C39.5973 59.0613 41.3333 58.4 43.152 58.4H111.104C121.355 58.4 130.779 59.64 139.376 62.12C147.973 64.4347 155.248 68.072 161.2 73.032C167.152 77.992 171.285 84.192 173.6 91.632C176.08 98.9067 176.328 107.504 174.344 117.424C170.045 137.264 161.365 151.813 148.304 161.072C135.408 170.165 117.635 174.712 94.984 174.712H67.208L56.296 225.552C55.9653 227.371 55.056 228.941 53.568 230.264C52.08 231.421 50.4267 232 48.608 232H6.448ZM74.648 134.784H97.712C102.341 134.784 106.723 133.379 110.856 130.568C114.989 127.592 117.717 123.045 119.04 116.928C119.867 113.787 120.032 110.811 119.536 108C119.205 105.189 117.965 102.957 115.816 101.304C113.832 99.4853 110.525 98.576 105.896 98.576H82.584L74.648 134.784ZM177.917 232C176.098 232 174.61 231.421 173.453 230.264C172.461 228.941 172.13 227.371 172.461 225.552L206.685 64.848C207.015 63.0293 207.925 61.5413 209.413 60.384C211.066 59.0613 212.802 58.4 214.621 58.4H336.141C337.959 58.4 339.365 59.0613 340.357 60.384C341.349 61.5413 341.679 63.0293 341.349 64.848L335.149 94.112C334.818 95.7653 333.826 97.2533 332.173 98.576C330.685 99.8987 329.031 100.56 327.213 100.56H250.581L245.125 125.112H316.301C318.119 125.112 319.525 125.773 320.517 127.096C321.674 128.253 322.087 129.741 321.757 131.56L315.805 158.344C315.474 160.163 314.482 161.733 312.829 163.056C311.341 164.213 309.687 164.792 307.869 164.792H236.693L231.485 189.84H310.101C311.919 189.84 313.325 190.501 314.317 191.824C315.309 193.147 315.639 194.717 315.309 196.536L309.109 225.552C308.778 227.371 307.869 228.941 306.381 230.264C304.893 231.421 303.239 232 301.421 232H177.917ZM405.17 234.48C387.975 234.48 373.757 232.083 362.514 227.288C351.437 222.493 343.501 216.211 338.706 208.44C333.911 200.504 332.258 192.072 333.746 183.144C334.077 181.656 334.821 180.416 335.978 179.424C337.135 178.432 338.458 177.936 339.946 177.936H379.378C381.858 177.936 383.677 178.349 384.834 179.176C385.991 179.837 387.149 180.829 388.306 182.152C389.298 183.971 390.621 185.707 392.274 187.36C394.093 188.848 396.407 190.088 399.218 191.08C402.194 191.907 405.666 192.32 409.634 192.32C417.239 192.32 423.357 191.328 427.986 189.344C432.781 187.195 435.591 184.301 436.418 180.664C437.079 177.853 436.418 175.539 434.434 173.72C432.615 171.901 429.143 170.248 424.018 168.76C419.058 167.272 412.279 165.701 403.682 164.048C391.282 161.899 380.949 158.427 372.682 153.632C364.581 148.837 358.877 142.637 355.57 135.032C352.263 127.261 351.767 118.085 354.082 107.504C357.389 91.4667 365.903 78.9013 379.626 69.808C393.349 60.5493 411.122 55.92 432.946 55.92C443.858 55.92 453.695 57.4907 462.458 60.632C471.221 63.7733 478.578 67.9067 484.53 73.032C490.647 77.992 495.111 83.3653 497.922 89.152C500.898 94.9387 501.89 100.477 500.898 105.768C500.733 107.256 499.989 108.579 498.666 109.736C497.509 110.728 496.269 111.224 494.946 111.224H453.53C451.381 111.224 449.645 110.893 448.322 110.232C447.165 109.571 446.09 108.496 445.098 107.008C444.767 104.693 443.114 102.627 440.138 100.808C437.327 98.9893 433.525 98.08 428.73 98.08C423.109 98.08 418.479 99.072 414.842 101.056C411.37 102.875 409.221 105.603 408.394 109.24C407.898 111.72 408.394 113.869 409.882 115.688C411.37 117.507 414.263 119.16 418.562 120.648C422.861 121.971 428.978 123.459 436.914 125.112C452.29 127.427 464.277 130.981 472.874 135.776C481.637 140.571 487.423 146.771 490.234 154.376C493.21 161.816 493.623 170.744 491.474 181.16C487.671 198.685 478.495 211.995 463.946 221.088C449.562 230.016 429.97 234.48 405.17 234.48ZM573.733 234.48C556.538 234.48 542.319 232.083 531.077 227.288C519.999 222.493 512.063 216.211 507.269 208.44C502.474 200.504 500.82 192.072 502.309 183.144C502.639 181.656 503.383 180.416 504.541 179.424C505.698 178.432 507.021 177.936 508.509 177.936H547.941C550.421 177.936 552.239 178.349 553.397 179.176C554.554 179.837 555.711 180.829 556.869 182.152C557.861 183.971 559.183 185.707 560.837 187.36C562.655 188.848 564.97 190.088 567.781 191.08C570.757 191.907 574.229 192.32 578.197 192.32C585.802 192.32 591.919 191.328 596.549 189.344C601.343 187.195 604.154 184.301 604.981 180.664C605.642 177.853 604.981 175.539 602.997 173.72C601.178 171.901 597.706 170.248 592.581 168.76C587.621 167.272 580.842 165.701 572.245 164.048C559.845 161.899 549.511 158.427 541.245 153.632C533.143 148.837 527.439 142.637 524.133 135.032C520.826 127.261 520.33 118.085 522.645 107.504C525.951 91.4667 534.466 78.9013 548.189 69.808C561.911 60.5493 579.685 55.92 601.509 55.92C612.421 55.92 622.258 57.4907 631.021 60.632C639.783 63.7733 647.141 67.9067 653.093 73.032C659.21 77.992 663.674 83.3653 666.485 89.152C669.461 94.9387 670.453 100.477 669.461 105.768C669.295 107.256 668.551 108.579 667.229 109.736C666.071 110.728 664.831 111.224 663.509 111.224H622.093C619.943 111.224 618.207 110.893 616.885 110.232C615.727 109.571 614.653 108.496 613.661 107.008C613.33 104.693 611.677 102.627 608.701 100.808C605.89 98.9893 602.087 98.08 597.293 98.08C591.671 98.08 587.042 99.072 583.405 101.056C579.933 102.875 577.783 105.603 576.957 109.24C576.461 111.72 576.957 113.869 578.445 115.688C579.933 117.507 582.826 119.16 587.125 120.648C591.423 121.971 597.541 123.459 605.477 125.112C620.853 127.427 632.839 130.981 641.437 135.776C650.199 140.571 655.986 146.771 658.797 154.376C661.773 161.816 662.186 170.744 660.037 181.16C656.234 198.685 647.058 211.995 632.509 221.088C618.125 230.016 598.533 234.48 573.733 234.48ZM676.575 232C674.922 232 673.516 231.421 672.359 230.264C671.367 228.941 671.036 227.371 671.367 225.552L705.839 64.848C706.17 63.0293 707.079 61.5413 708.567 60.384C710.055 59.0613 711.708 58.4 713.527 58.4H755.439C757.258 58.4 758.663 59.0613 759.655 60.384C760.647 61.5413 760.978 63.0293 760.647 64.848L726.423 225.552C726.092 227.371 725.183 228.941 723.695 230.264C722.207 231.421 720.554 232 718.735 232H676.575ZM762.315 232C760.497 232 759.009 231.421 757.851 230.264C756.859 228.941 756.529 227.371 756.859 225.552L791.083 64.848C791.414 63.0293 792.323 61.5413 793.811 60.384C795.465 59.0613 797.201 58.4 799.019 58.4H832.003C834.979 58.4 837.046 59.2267 838.203 60.88C839.526 62.5333 840.27 63.6907 840.435 64.352L865.731 133.296L920.043 64.352C920.705 63.6907 921.945 62.5333 923.763 60.88C925.582 59.2267 927.979 58.4 930.955 58.4H963.939C965.758 58.4 967.163 59.0613 968.155 60.384C969.147 61.5413 969.478 63.0293 969.147 64.848L934.923 225.552C934.593 227.371 933.683 228.941 932.195 230.264C930.707 231.421 929.054 232 927.235 232H889.787C887.969 232 886.563 231.421 885.571 230.264C884.579 228.941 884.249 227.371 884.579 225.552L901.443 145.944L871.435 184.384C870.278 185.707 868.873 187.029 867.219 188.352C865.566 189.675 863.582 190.336 861.267 190.336H846.139C843.825 190.336 842.089 189.675 840.931 188.352C839.939 187.029 839.195 185.707 838.699 184.384L824.315 144.704L807.203 225.552C806.873 227.371 805.963 228.941 804.475 230.264C802.987 231.421 801.334 232 799.515 232H762.315ZM970.833 232C969.179 232 967.774 231.421 966.617 230.264C965.625 228.941 965.294 227.371 965.625 225.552L1000.1 64.848C1000.43 63.0293 1001.34 61.5413 1002.82 60.384C1004.31 59.0613 1005.97 58.4 1007.78 58.4H1049.7C1051.52 58.4 1052.92 59.0613 1053.91 60.384C1054.9 61.5413 1055.24 63.0293 1054.9 64.848L1020.68 225.552C1020.35 227.371 1019.44 228.941 1017.95 230.264C1016.46 231.421 1014.81 232 1012.99 232H970.833ZM1122.05 234.48C1104.85 234.48 1090.63 232.083 1079.39 227.288C1068.31 222.493 1060.38 216.211 1055.58 208.44C1050.79 200.504 1049.13 192.072 1050.62 183.144C1050.95 181.656 1051.7 180.416 1052.85 179.424C1054.01 178.432 1055.33 177.936 1056.82 177.936H1096.25C1098.73 177.936 1100.55 178.349 1101.71 179.176C1102.87 179.837 1104.02 180.829 1105.18 182.152C1106.17 183.971 1107.5 185.707 1109.15 187.36C1110.97 188.848 1113.28 190.088 1116.09 191.08C1119.07 191.907 1122.54 192.32 1126.51 192.32C1134.11 192.32 1140.23 191.328 1144.86 189.344C1149.66 187.195 1152.47 184.301 1153.29 180.664C1153.95 177.853 1153.29 175.539 1151.31 173.72C1149.49 171.901 1146.02 170.248 1140.89 168.76C1135.93 167.272 1129.15 165.701 1120.56 164.048C1108.16 161.899 1097.82 158.427 1089.56 153.632C1081.46 148.837 1075.75 142.637 1072.45 135.032C1069.14 127.261 1068.64 118.085 1070.96 107.504C1074.26 91.4667 1082.78 78.9013 1096.5 69.808C1110.22 60.5493 1128 55.92 1149.82 55.92C1160.73 55.92 1170.57 57.4907 1179.33 60.632C1188.1 63.7733 1195.45 67.9067 1201.41 73.032C1207.52 77.992 1211.99 83.3653 1214.8 89.152C1217.77 94.9387 1218.77 100.477 1217.77 105.768C1217.61 107.256 1216.86 108.579 1215.54 109.736C1214.38 110.728 1213.14 111.224 1211.82 111.224H1170.41C1168.26 111.224 1166.52 110.893 1165.2 110.232C1164.04 109.571 1162.97 108.496 1161.97 107.008C1161.64 104.693 1159.99 102.627 1157.01 100.808C1154.2 98.9893 1150.4 98.08 1145.61 98.08C1139.98 98.08 1135.35 99.072 1131.72 101.056C1128.25 102.875 1126.1 105.603 1125.27 109.24C1124.77 111.72 1125.27 113.869 1126.76 115.688C1128.25 117.507 1131.14 119.16 1135.44 120.648C1139.74 121.971 1145.85 123.459 1153.79 125.112C1169.17 127.427 1181.15 130.981 1189.75 135.776C1198.51 140.571 1204.3 146.771 1207.11 154.376C1210.09 161.816 1210.5 170.744 1208.35 181.16C1204.55 198.685 1195.37 211.995 1180.82 221.088C1166.44 230.016 1146.85 234.48 1122.05 234.48ZM1225.14 232C1223.32 232 1221.83 231.421 1220.67 230.264C1219.68 228.941 1219.35 227.371 1219.68 225.552L1253.9 64.848C1254.23 63.0293 1255.14 61.5413 1256.63 60.384C1258.28 59.0613 1260.02 58.4 1261.84 58.4H1294.82C1297.8 58.4 1299.87 59.2267 1301.02 60.88C1302.35 62.5333 1303.09 63.6907 1303.26 64.352L1328.55 133.296L1382.86 64.352C1383.52 63.6907 1384.76 62.5333 1386.58 60.88C1388.4 59.2267 1390.8 58.4 1393.78 58.4H1426.76C1428.58 58.4 1429.98 59.0613 1430.98 60.384C1431.97 61.5413 1432.3 63.0293 1431.97 64.848L1397.74 225.552C1397.41 227.371 1396.5 228.941 1395.02 230.264C1393.53 231.421 1391.87 232 1390.06 232H1352.61C1350.79 232 1349.38 231.421 1348.39 230.264C1347.4 228.941 1347.07 227.371 1347.4 225.552L1364.26 145.944L1334.26 184.384C1333.1 185.707 1331.69 187.029 1330.04 188.352C1328.39 189.675 1326.4 190.336 1324.09 190.336H1308.96C1306.64 190.336 1304.91 189.675 1303.75 188.352C1302.76 187.029 1302.02 185.707 1301.52 184.384L1287.14 144.704L1270.02 225.552C1269.69 227.371 1268.78 228.941 1267.3 230.264C1265.81 231.421 1264.15 232 1262.34 232H1225.14Z" fill="white"/>
</svg>
